<?xml version="1.0" encoding="UTF-8"?>
<!DOCTYPE svg PUBLIC "-//W3C//DTD SVG 1.1//EN" "http://www.w3.org/Graphics/SVG/1.1/DTD/svg11.dtd">
<svg xmlns="http://www.w3.org/2000/svg" width="261px" height="261px" viewBox="1360 2800 2900 3240" xmlns:xlink="http://www.w3.org/1999/xlink">
  <defs>
    <style type="text/css">
     <![CDATA[
      .fil0 {fill:#444343;fill-rule:nonzero}
      .fil1 {fill:#615E5C;fill-rule:nonzero}
      .fil2 {fill:#19A29B;fill-rule:nonzero}
      .fil3 {fill:#04A29C;fill-rule:nonzero}
     ]]>
    </style>
  </defs>

  <path class="fil3" d="M2818 6043c-892,0 -1618,-727 -1618,-1619 0,-893 726,-1619 1618,-1619 208,0 411,39 604,117l-61 153c-173,-70 -356,-105 -543,-105 -801,0 -1453,652 -1453,1454 0,801 652,1453 1453,1453 295,0 579,-88 821,-254l94 136c-270,186 -587,284 -915,284z"/>
  <path class="fil3" d="M4001 5516c0,56 -45,100 -100,100 -55,0 -100,-44 -100,-100 0,-55 45,-100 100,-100 55,0 100,45 100,100z"/>
  <path class="fil3" d="M3756 3102c0,56 -45,100 -100,100 -55,0 -100,-44 -100,-100 0,-55 45,-100 100,-100 55,0 100,45 100,100z"/>
  <g>
     <path class="fil3" d="M1869 4197c-1,0 -1,0 -1,0 -28,0 -49,-23 -49,-50l12 -431c0,-15 7,-29 18,-38l555 -438c22,-17 53,-14 70,8 17,21 13,52 -8,69l-537 425 -11 407c0,27 -22,48 -49,48z"/>
     <path class="fil3" d="M2193 3964c-15,0 -29,-6 -39,-18 -17,-22 -13,-53 8,-70l510 -402c21,-17 52,-13 69,8 17,22 13,53 -8,70l-509 402c-9,7 -20,10 -31,10z"/>
     <path class="fil3" d="M2826 4485l-1344 0c-27,0 -49,-22 -49,-49 0,-27 22,-50 49,-50l1295 0 0 -769 -373 -300c-21,-17 -25,-48 -7,-70 17,-21 48,-24 69,-7l391 315c12,10 19,24 19,39l0 842c0,27 -22,49 -50,49z"/>
     <path class="fil3" d="M2437 3746c-10,0 -20,-3 -29,-9l-267 -190c-22,-16 -28,-47 -12,-69 16,-23 47,-28 69,-12l267 190c23,16 28,47 12,70 -10,13 -25,20 -40,20z"/>
     <path class="fil3" d="M2240 4485c-11,0 -22,-3 -31,-10l-340 -265 -322 247c-22,16 -53,12 -70,-9 -16,-22 -12,-53 10,-70l352 -270c18,-13 42,-13 60,1l371 288c22,16 25,48 9,69 -10,13 -25,19 -39,19z"/>
     <path class="fil3" d="M2173 3973c-11,0 -22,-3 -31,-10l-264 -212c-22,-17 -25,-48 -8,-70 17,-21 48,-24 70,-7l264 211c21,18 24,49 7,70 -10,12 -24,18 -38,18z"/>
     <path class="fil3" d="M2173 4464c-28,0 -50,-22 -50,-49l0 -470c0,-28 22,-50 50,-50 27,0 49,22 49,50l0 470c0,27 -22,49 -49,49z"/>
     <path class="fil3" d="M2497 4463c-27,0 -49,-22 -49,-49l0 -421c0,-16 7,-30 19,-39l313 -247c21,-17 52,-13 69,8 17,22 13,53 -8,70l-294 232 0 397c0,27 -22,49 -50,49z"/>
   
     <path class="fil3" d="M2435 5646c-11,0 -22,-3 -31,-10l-555 -439c-11,-9 -18,-23 -18,-37l-12 -431c0,-27 21,-50 49,-51 27,1 50,21 50,48l11 408 537 424c21,17 25,48 8,70 -10,12 -24,18 -39,18z"/>
     <path class="fil3" d="M2702 5412c-11,0 -21,-4 -30,-11l-510 -402c-21,-17 -25,-48 -8,-69 17,-22 48,-25 70,-8l509 402c21,17 25,48 8,69 -10,13 -24,19 -39,19z"/>
     <path class="fil3" d="M2435 5646c-14,0 -29,-6 -38,-18 -18,-21 -14,-52 7,-69l373 -301 0 -769 -1295 0c-27,0 -49,-22 -49,-49 0,-28 22,-50 49,-50l1344 0c28,0 50,22 50,50l0 842c0,15 -7,29 -19,38l-391 316c-9,7 -20,10 -31,10z"/>
     <path class="fil3" d="M2170 5419c-16,0 -31,-8 -41,-21 -16,-22 -10,-53 12,-69l267 -191c22,-15 53,-10 69,12 16,22 11,53 -12,69l-267 190c-8,7 -18,10 -28,10z"/>
     <path class="fil3" d="M1869 4777c-11,0 -21,-3 -30,-10l-352 -270c-22,-16 -26,-48 -10,-69 17,-22 48,-26 70,-9l322 246 340 -264c22,-17 53,-13 70,8 16,22 13,53 -9,70l-371 288c-9,7 -19,10 -30,10z"/>
     <path class="fil3" d="M1909 5213c-15,0 -29,-7 -39,-19 -17,-21 -14,-52 8,-69l264 -212c21,-17 52,-14 69,7 17,22 14,53 -7,70l-264 212c-9,7 -20,11 -31,11z"/>
     <path class="fil3" d="M2173 4980c-28,0 -50,-22 -50,-49l0 -470c0,-28 22,-50 50,-50 27,0 49,22 49,50l0 470c0,27 -22,49 -49,49z"/>
     <path class="fil3" d="M2810 5179c-11,0 -21,-3 -30,-11l-313 -246c-12,-10 -19,-24 -19,-39l0 -421c0,-28 22,-50 49,-50 28,0 50,22 50,50l0 397 294 232c21,17 25,48 8,69 -10,12 -24,19 -39,19z"/>
   
   <g>
     <path class="fil3" d="M3804 4197c-27,0 -49,-21 -50,-48l-10 -407 -537 -425c-21,-17 -25,-48 -8,-69 17,-22 48,-25 69,-8l555 438c12,9 19,23 19,38l11 431c1,27 -21,50 -48,50 0,0 -1,0 -1,0z"/>
     <path class="fil3" d="M3480 3964c-11,0 -22,-3 -31,-10l-509 -402c-22,-17 -25,-48 -8,-70 17,-21 48,-25 69,-8l510 402c21,17 25,48 8,70 -10,12 -25,18 -39,18z"/>
     <path class="fil3" d="M4191 4485l-1345 0c-27,0 -49,-22 -49,-49l0 -842c0,-15 7,-29 18,-39l392 -315c21,-17 52,-14 69,7 17,22 14,53 -7,70l-373 300 0 769 1295 0c27,0 49,23 49,50 0,27 -22,49 -49,49z"/>
     <path class="fil3" d="M3236 3746c-15,0 -30,-7 -40,-20 -16,-23 -11,-54 12,-70l267 -190c22,-16 53,-11 69,12 15,22 10,53 -12,69l-267 190c-9,6 -19,9 -29,9z"/>
     <path class="fil3" d="M3433 4485c-15,0 -29,-6 -39,-19 -17,-21 -13,-53 9,-69l371 -288c17,-14 42,-14 60,-1l352 270c22,17 26,48 9,70 -16,21 -47,25 -69,9l-322 -247 -340 265c-9,7 -20,10 -31,10z"/>
     <path class="fil3" d="M3500 3973c-14,0 -29,-6 -38,-18 -17,-21 -14,-52 7,-70l264 -211c21,-17 52,-14 70,7 17,22 13,53 -8,70l-264 212c-9,7 -20,10 -31,10z"/>
     <path class="fil3" d="M3500 4464c-27,0 -49,-22 -49,-49l0 -470c0,-28 22,-50 49,-50 27,0 50,22 50,50l0 470c0,27 -23,49 -50,49z"/>
     <path class="fil3" d="M3175 4463c-27,0 -49,-22 -49,-49l0 -397 -294 -232c-22,-17 -25,-48 -8,-70 17,-21 48,-25 69,-8l313 247c12,9 19,23 19,39l0 421c0,27 -22,49 -50,49z"/>
   </g>

   <g>
     <path class="fil3" d="M3238 5646c-15,0 -29,-6 -39,-18 -17,-22 -13,-53 8,-70l537 -424 10 -408c1,-27 25,-48 51,-48 27,1 49,24 48,51l-11 431c0,14 -7,28 -19,37l-555 439c-9,7 -20,10 -30,10z"/>
     <path class="fil3" d="M2971 5412c-15,0 -30,-6 -39,-19 -17,-21 -14,-52 8,-69l509 -402c22,-17 53,-14 70,8 17,21 13,52 -8,69l-510 402c-9,7 -20,11 -30,11z"/>
     <path class="fil3" d="M3238 5646c-11,0 -22,-3 -31,-10l-392 -316c-11,-9 -18,-23 -18,-38l0 -842c0,-28 22,-50 49,-50l1345 0c27,0 49,22 49,50 0,27 -22,49 -49,49l-1295 0 0 769 373 301c21,17 24,48 7,69 -10,12 -24,18 -38,18z"/>
     <path class="fil3" d="M3503 5419c-10,0 -20,-3 -28,-10l-268 -190c-22,-16 -27,-47 -11,-69 16,-22 47,-27 69,-12l267 191c22,16 27,47 12,69 -10,13 -25,21 -41,21z"/>
     <path class="fil3" d="M3804 4777c-11,0 -22,-3 -30,-10l-371 -288c-22,-17 -26,-48 -9,-70 17,-21 48,-25 70,-8l340 264 322 -246c22,-17 53,-13 69,9 17,21 13,53 -9,69l-352 270c-9,7 -19,10 -30,10z"/>
     <path class="fil3" d="M3764 5213c-11,0 -22,-4 -31,-11l-264 -212c-21,-17 -24,-48 -7,-70 17,-21 48,-24 69,-7l264 212c21,17 25,48 8,69 -10,12 -25,19 -39,19z"/>
     <path class="fil3" d="M3500 4980c-27,0 -49,-22 -49,-49l0 -470c0,-28 22,-50 49,-50 27,0 50,22 50,50l0 470c0,27 -23,49 -50,49z"/>
     <path class="fil3" d="M2863 5179c-15,0 -30,-7 -39,-19 -17,-21 -14,-52 8,-69l294 -232 0 -397c0,-28 22,-50 49,-50 28,0 50,22 50,50l0 421c0,15 -7,29 -19,39l-313 246c-9,8 -20,11 -30,11z"/>
   </g>
  </g>
</svg>
