<?xml version="1.0" encoding="UTF-8"?>
<!DOCTYPE svg PUBLIC "-//W3C//DTD SVG 1.1//EN" "http://www.w3.org/Graphics/SVG/1.1/DTD/svg11.dtd">
<svg xmlns="http://www.w3.org/2000/svg" width="211px" height="200px" viewBox="4060 3400 4080 3230" xmlns:xlink="http://www.w3.org/1999/xlink">
  <defs>
    <style type="text/css">
     <![CDATA[
      .fil0 {fill:#444343;fill-rule:nonzero}
      .fil1 {fill:#615E5C;fill-rule:nonzero; fill: white;}
      .fil2 {fill:#19A29B;fill-rule:nonzero; fill: white;}
      .fil3 {fill:#04A29C;fill-rule:nonzero}
     ]]>
    </style>
  </defs>
  <g>

  <g id="_652385856" style="display: none;">
  <polygon class="fil0" points="4480,5450 4480,5683 4458,5683 4458,5470 4307,5470 4307,5683 4284,5683 4284,5450 "/>
  <path class="fil0" d="M4588 5497c18,-39 51,-53 92,-53 68,0 106,57 106,121 0,111 -111,154 -196,92l0 146 -22 0 0 -282c0,-36 2,-60 -30,-54l-1 -20c38,-6 51,10 51,43l0 7zm2 135l0 0c71,60 172,33 172,-67 0,-52 -29,-99 -86,-99 -51,0 -84,40 -86,89l0 77z"/>
  <path class="fil0" d="M4833 5566c0,-161 245,-161 245,0 0,160 -245,160 -245,0zm221 0l0 0c0,-133 -198,-133 -198,0 0,132 198,133 198,0z"/>
  <path class="fil0" d="M5346 5567l-197 0c0,67 42,98 103,100 31,-1 58,-8 81,-18l5 20c-27,12 -58,18 -85,18 -79,0 -131,-45 -128,-129 4,-71 52,-113 118,-113 76,0 116,44 103,122zm-19 -20l0 0c5,-55 -32,-83 -85,-83 -52,0 -88,31 -93,83l178 0z"/>
  <path class="fil0" d="M5472 5551c69,0 104,-32 104,-102l23 0c0,54 -20,96 -73,112l84 118 0 3 -24 0 -81 -114c-10,2 -21,3 -33,3l-38 0 0 111 -24 0 0 -233 24 0 0 102 38 0z"/>
  <polygon class="fil0" points="5724,5683 5724,5470 5635,5470 5635,5450 5835,5450 5835,5470 5746,5470 5746,5683 "/>
  <path class="fil0" d="M5893 5683l-8 0 0 -233 23 0 0 125 -3 65 167 -190c3,0 6,0 9,0 0,77 0,155 0,233 -7,0 -15,0 -22,0l0 -140 2 -51 -168 191z"/>
  <path class="fil0" d="M6188 5497c19,-39 52,-53 93,-53 68,0 105,57 105,121 0,111 -110,154 -195,92l0 146 -23 0 0 -282c0,-36 3,-60 -29,-54l-1 -20c38,-6 50,10 50,43l0 7zm3 135l0 0c71,60 172,33 172,-67 0,-52 -29,-99 -86,-99 -52,0 -84,40 -86,89l0 77z"/>
  <path class="fil0" d="M6434 5566c0,-161 244,-161 244,0 0,160 -244,160 -244,0zm221 0l0 0c0,-133 -198,-133 -198,0 0,132 198,133 198,0z"/>
  <path class="fil0" d="M6879 5558c34,7 53,25 53,60 0,58 -56,65 -101,65l-90 0c0,-77 0,-155 0,-233l82 0c41,0 94,4 94,58 0,28 -13,43 -38,50zm-55 -7l0 0c30,0 71,-1 71,-41 0,-40 -41,-40 -71,-40l-60 0 0 81 60 0zm6 112l0 0c33,0 78,-2 78,-46 0,-47 -49,-46 -84,-46l-60 0 0 92 66 0z"/>
  <path class="fil0" d="M7057 5687c-41,0 -83,-26 -83,-71 0,-53 44,-78 90,-78 30,0 60,6 87,20l0 -36c0,-45 -41,-57 -79,-57 -27,0 -55,6 -75,18l-5 -20c22,-11 53,-19 83,-19 50,0 98,21 98,79l0 106c0,28 -2,44 29,40l1 16c-39,6 -49,-8 -48,-44 -18,33 -59,46 -98,46zm94 -109l0 0c-25,-13 -56,-22 -83,-21 -35,0 -72,19 -71,58 1,36 31,52 64,52 37,0 80,-17 90,-57l0 -32z"/>
  <polygon class="fil0" points="7451,5450 7451,5683 7428,5683 7428,5573 7276,5573 7276,5683 7253,5683 7253,5450 7276,5450 7276,5552 7428,5552 7428,5450 "/>
  <path class="fil0" d="M7537 5683l-8 0 0 -233 23 0 0 125 -3 65 167 -190c3,0 6,0 9,0 0,77 0,155 0,233 -7,0 -15,0 -22,0l0 -140 2 -51 -168 191z"/>
  <path class="fil0" d="M8009 5567l-198 0c0,67 42,98 104,100 31,-1 58,-8 80,-18l5 20c-27,12 -58,18 -85,18 -78,0 -131,-45 -127,-129 4,-71 51,-113 118,-113 75,0 116,44 103,122zm-19 -20l0 0c5,-55 -33,-83 -85,-83 -52,0 -88,31 -93,83l178 0z"/>
  <path class="fil0" d="M4540 6263l-8 0 0 -233 23 0 0 125 -3 64 167 -189c3,0 6,0 9,0 0,78 0,155 0,233 -7,0 -15,0 -22,0l0 -141 2 -50 -168 191z"/>
  <path class="fil0" d="M4942 6263l-8 0 0 -233 23 0 0 125 -3 64 167 -189c3,0 6,0 9,0 0,78 0,155 0,233 -7,0 -15,0 -22,0l0 -141 2 -50 -168 191z"/>
  <polygon class="fil0" points="5405,6030 5405,6263 5383,6263 5383,6153 5231,6153 5231,6263 5208,6263 5208,6030 5231,6030 5231,6132 5383,6132 5383,6030 "/>
  <path class="fil0" d="M5647 6132c71,0 104,-33 104,-102l21 0c0,53 -17,95 -71,112l85 117 0 4 -23 0 -82 -114c-10,2 -22,2 -34,2l-15 0 0 112 -21 0 0 -112 -16 0c-12,0 -23,0 -33,-2l-80 114 -24 0 0 -4 83 -117c-53,-17 -70,-59 -69,-112l21 0c-1,69 33,102 102,102l16 0 0 -103 21 0 0 103 15 0z"/>
  <path class="fil0" d="M6044 6147l-197 0c0,67 42,98 103,100 32,-1 58,-8 81,-18l5 20c-27,12 -58,19 -85,19 -79,0 -131,-46 -127,-130 3,-71 51,-113 117,-113 76,0 117,44 103,122zm-19 -20l0 0c6,-55 -32,-83 -84,-83 -53,0 -88,31 -94,83l178 0z"/>
  <polygon class="fil0" points="6306,6030 6306,6263 6283,6263 6283,6153 6131,6153 6131,6263 6109,6263 6109,6030 6131,6030 6131,6132 6283,6132 6283,6030 "/>
  <path class="fil0" d="M6590 6147l-197 0c0,67 42,98 103,100 31,-1 58,-8 81,-18l4 20c-27,12 -58,19 -85,19 -78,0 -131,-46 -127,-130 4,-71 52,-113 118,-113 76,0 116,44 103,122zm-19 -20l0 0c5,-55 -32,-83 -85,-83 -52,0 -88,31 -93,83l178 0z"/>
  <path class="fil0" d="M6683 6077c19,-39 52,-53 93,-53 68,0 106,57 106,121 0,111 -111,154 -196,92l0 146 -22 0 0 -282c0,-36 3,-60 -30,-54l-1 -20c38,-6 50,10 50,43l0 7zm3 135l0 0c71,60 172,33 172,-67 0,-52 -29,-99 -86,-99 -51,0 -84,40 -86,89l0 77z"/>
  <polygon class="fil0" points="7142,6030 7142,6263 7119,6263 7119,6153 6967,6153 6967,6263 6944,6263 6944,6030 6967,6030 6967,6132 7119,6132 7119,6030 "/>
  <path class="fil0" d="M7220 6263l0 -233 23 0 0 80 62 0c49,0 100,17 100,76 0,58 -51,77 -101,77l-84 0zm23 -134l0 0 0 114 61 0c38,0 79,-13 79,-57 0,-44 -42,-57 -79,-57l-61 0zm211 -99l0 0 23 0 0 233 -23 0 0 -233z"/>
  <path class="fil0" d="M7761 6147l-198 0c0,67 42,98 104,100 31,-1 58,-8 80,-18l5 20c-27,12 -58,19 -85,19 -78,0 -131,-46 -127,-130 4,-71 51,-113 118,-113 75,0 116,44 103,122zm-19 -20l0 0c5,-55 -33,-83 -85,-83 -52,0 -88,31 -93,83l178 0z"/>
  <path class="fil0" d="M5432 6657c19,-39 52,-53 92,-53 68,0 106,57 106,121 0,111 -111,154 -195,92l0 146 -23 0 0 -282c0,-35 3,-60 -30,-54l-1 -20c39,-6 51,10 51,43l0 7zm3 135l0 0c71,60 171,33 171,-67 0,-52 -29,-99 -86,-99 -51,0 -84,40 -85,89l0 77z"/>
  <path class="fil0" d="M5756 6847c-41,0 -83,-27 -83,-71 0,-53 43,-78 90,-78 29,0 60,6 87,20l0 -36c0,-45 -42,-57 -79,-57 -27,0 -55,6 -75,18l-5 -19c22,-13 53,-20 83,-20 50,0 98,21 98,79l0 106c0,28 -2,44 29,40l1 16c-40,7 -50,-8 -48,-44 -18,33 -60,46 -98,46zm94 -109l0 0c-25,-13 -56,-22 -84,-21 -34,0 -72,19 -70,58 1,36 31,52 64,52 37,0 80,-17 90,-57l0 -32z"/>
  <path class="fil0" d="M6180 6728c0,60 -39,119 -118,119 -74,0 -112,-50 -118,-107 -10,-103 13,-170 117,-203 20,-7 63,-22 51,-50l22 0c11,37 -35,60 -63,69 -62,19 -102,50 -109,118 15,-36 52,-63 103,-63 70,-1 115,51 115,117zm-118 98l0 0c62,0 96,-47 96,-98 0,-55 -34,-96 -96,-96 -63,0 -96,47 -96,96 0,58 39,98 96,98z"/>
  <path class="fil0" d="M6227 6726c0,-161 245,-161 245,0 0,160 -245,160 -245,0zm222 0l0 0c0,-133 -198,-133 -198,0 0,132 198,133 198,0z"/>
  <polygon class="fil0" points="6586,6843 6586,6630 6498,6630 6498,6610 6697,6610 6697,6630 6608,6630 6608,6843 "/>
  <path class="fil0" d="M6747 6843l0 -233 23 0 0 80 63 0c49,0 100,17 100,76 0,58 -52,77 -101,77l-85 0zm23 -134l0 0 0 114 62 0c38,0 78,-13 78,-57 0,-44 -41,-57 -78,-57l-62 0zm212 -99l0 0 22 0 0 233 -22 0 0 -233z"/>
  </g>
  <g>
  <path class="fil1" d="M4435 3567l-30 0 -76 0 0 377 145 20 0 26 -457 0 0 -24 145 -20 0 -830 -145 -20 0 -25 454 0c187,0 318,72 318,246 0,113 -66,190 -191,227l11 15 245 382 82 28 0 21 -249 0 -252 -423zm-106 -447l0 0 0 402 46 0c145,-4 238,-75 238,-201 0,-124 -71,-200 -212,-201l-72 0z"/>
  <path class="fil1" d="M5333 3914c55,0 132,-24 190,-63l16 27c-42,58 -156,124 -277,124 -221,0 -342,-131 -342,-354 0,-227 143,-386 340,-386 199,0 290,135 295,351l-481 0 0 12c0,193 125,289 259,289zm-257 -345l0 0 310 -6c3,-138 -41,-259 -141,-259 -86,0 -157,93 -169,265z"/>
  <path class="fil1" d="M5629 3960l0 -201 33 0 66 160c41,20 93,33 142,33 81,0 162,-32 162,-125 0,-183 -397,-69 -397,-353 0,-142 139,-212 282,-212 79,0 161,14 227,45l0 178 -33 0 -53 -137c-40,-20 -98,-36 -148,-36 -78,0 -145,36 -145,121 0,191 403,62 403,346 0,154 -140,223 -293,223 -87,0 -172,-19 -246,-42z"/>
  <path class="fil1" d="M6590 3916c55,0 96,-7 150,-34l0 -537 -128 0 0 -22 215 -61 62 0 0 673 108 34 0 21 -226 0 -28 -90c-88,76 -153,102 -240,102 -146,0 -211,-94 -211,-250l0 -407 -130 0 0 -22 215 -61 64 0 0 433c0,145 44,221 149,221z"/>
  <path class="fil1" d="M7006 3969l117 -27 0 -597 -129 0 0 -22 197 -61 59 0 13 88c71,-52 158,-88 217,-88 26,0 48,1 73,7l-33 152 -13 0 -168 -65 -73 13 5 23 0 546 139 30 0 22 -404 0 0 -21z"/>
  <path class="fil1" d="M7574 3960l0 -201 33 0 66 160c41,20 93,33 142,33 80,0 163,-32 163,-125 0,-183 -398,-69 -398,-353 0,-142 139,-212 282,-212 79,0 161,14 227,45l0 178 -33 0 -53 -137c-40,-20 -98,-36 -148,-36 -78,0 -145,36 -145,121 0,191 403,62 403,346 0,154 -140,223 -293,223 -87,0 -172,-19 -246,-42z"/>
  </g>
  <g>
  <g>
   <g>
    <polygon class="fil2" points="4645,4805 4645,4937 4323,4937 4323,4805 4403,4805 4403,4445 4330,4445 4330,4313 4638,4313 4638,4445 4566,4445 4566,4805 "/>
    <polygon class="fil2" points="5429,4456 5429,4313 6031,4313 6031,4456 5878,4456 5878,4937 5720,4937 5720,4456 "/>
    <polygon class="fil2" points="6504,4455 6278,4455 6278,4544 6486,4544 6486,4687 6278,4687 6278,4788 6512,4788 6512,4937 6115,4937 6115,4313 6504,4313 "/>
    <path class="fil2" d="M6912 4307c128,0 269,69 293,236l-157 0c-22,-64 -70,-89 -136,-89 -95,0 -156,68 -156,171 0,90 60,170 156,170 68,0 121,-32 138,-99l157 0c-24,177 -162,247 -295,247 -160,0 -320,-107 -320,-317 0,-215 160,-319 320,-319z"/>
    <polygon class="fil2" points="7659,4937 7659,4688 7465,4688 7465,4937 7302,4937 7302,4313 7465,4313 7465,4538 7659,4538 7659,4313 7822,4313 7822,4937 "/>
   </g>
  </g>
  <polygon class="fil2" points="5459,4799 5294,4799 5294,4313 5131,4313 5131,4618 4806,4310 4755,4310 4755,4937 4918,4937 4918,4615 5246,4939 5459,4939 "/>
  </g>

</g>
</svg>